<svg xmlns="http://www.w3.org/2000/svg">
  <symbol id="icon-layout-dashboard" viewBox="0 0 24 24"><rect width="7" height="9" x="3" y="3" rx="1"/><rect width="7" height="5" x="14" y="3" rx="1"/><rect width="7" height="9" x="14" y="12" rx="1"/><rect width="7" height="5" x="3" y="16" rx="1"/></symbol>
  <symbol id="icon-key" viewBox="0 0 24 24"><circle cx="7.5" cy="15.5" r="5.5"/><path d="m21 2-9.6 9.6M15.5 7.5l3 3L22 7l-3-3"/></symbol>
  <symbol id="icon-users" viewBox="0 0 24 24"><path d="M16 21v-2a4 4 0 0 0-4-4H6a4 4 0 0 0-4 4v2"/><circle cx="9" cy="7" r="4"/><path d="M22 21v-2a4 4 0 0 0-3-3.87M16 3.13a4 4 0 0 1 0 7.75"/></symbol>
  <symbol id="icon-history" viewBox="0 0 24 24"><path d="M3 12a9 9 0 1 0 3-7.7L3 7M3 3v4h4M12 7v5l4 2"/></symbol>
  <symbol id="icon-refresh" viewBox="0 0 24 24"><path d="M21 12a9 9 0 0 0-15.64-6.13L3 8M3 3v5h5M3 12a9 9 0 0 0 15.64 6.13L21 16M16 16h5v5"/></symbol>
  <symbol id="icon-plus" viewBox="0 0 24 24"><path d="M12 5v14M5 12h14"/></symbol>
  <symbol id="icon-search" viewBox="0 0 24 24"><circle cx="11" cy="11" r="8"/><path d="m21 21-4.3-4.3"/></symbol>
  <symbol id="icon-upload" viewBox="0 0 24 24"><path d="M21 15v4a2 2 0 0 1-2 2H5a2 2 0 0 1-2-2v-4M17 8l-5-5-5 5M12 3v12"/></symbol>
  <symbol id="icon-trash" viewBox="0 0 24 24"><path d="M3 6h18M8 6V4a2 2 0 0 1 2-2h4a2 2 0 0 1 2 2v2M19 6l-1 14a2 2 0 0 1-2 2H8a2 2 0 0 1-2-2L5 6M10 11v6M14 11v6"/></symbol>
  <symbol id="icon-download" viewBox="0 0 24 24"><path d="M21 15v4a2 2 0 0 1-2 2H5a2 2 0 0 1-2-2v-4M7 10l5 5 5-5M12 15V3"/></symbol>
  <symbol id="icon-play" viewBox="0 0 24 24"><path d="m6 3 14 9-14 9z"/></symbol>
  <symbol id="icon-x" viewBox="0 0 24 24"><path d="M18 6 6 18M6 6l12 12"/></symbol>
</svg>
